<svg xmlns="http://www.w3.org/2000/svg">
  <defs>
    <symbol id="pokemon-icon" viewBox="0 0 24 24">
      <path fill-rule="evenodd" clip-rule="evenodd" d="M3 12C3 7.02944 7.02944 3 12 3C16.9706 3 21 7.02944 21 12C21 16.9706 16.9706 21 12 21C7.02944 21 3 16.9706 3 12ZM5.07089 13C5.55612 16.3923 8.47353 19 12 19C15.5265 19 18.4439 16.3923 18.9291 13H14.8293C14.4174 14.1652 13.3062 15 12 15C10.6938 15 9.58251 14.1652 9.17068 13H5.07089ZM18.9291 11C18.4439 7.60771 15.5265 5 12 5C8.47353 5 5.55612 7.60771 5.07089 11H9.17068C9.58251 9.83481 10.6938 9 12 9C13.3062 9 14.4174 9.83481 14.8293 11H18.9291ZM12 13C12.5523 13 13 12.5523 13 12C13 11.4477 12.5523 11 12 11C11.4477 11 11 11.4477 11 12C11 12.5523 11.4477 13 12 13Z" fill="#000000"/>
    </symbol>
    <symbol id="pikachu-icon" viewBox="0 0 24 24">
<path fill-rule="evenodd" clip-rule="evenodd" d="M12.261 1.03462C12.6971 1.15253 13 1.54819 13 1.99997V8.99997H19C19.3581 8.99997 19.6888 9.19141 19.8671 9.50191C20.0455 9.8124 20.0442 10.1945 19.8638 10.5038L12.8638 22.5038C12.6361 22.8941 12.1751 23.0832 11.739 22.9653C11.3029 22.8474 11 22.4517 11 22V15H5C4.64193 15 4.3112 14.8085 4.13286 14.498C3.95452 14.1875 3.9558 13.8054 4.13622 13.4961L11.1362 1.4961C11.3639 1.10586 11.8249 0.916719 12.261 1.03462ZM6.74104 13H12C12.5523 13 13 13.4477 13 14V18.301L17.259 11H12C11.4477 11 11 10.5523 11 9.99997V5.69889L6.74104 13Z" fill="#000000"/>
     </symbol>
     <symbol id="charmander-icon" viewBox="0 0 24 24">
    	<path d="M9.32 15.653a.812.812 0 0 1-.086-.855c.176-.342.245-.733.2-1.118a2.106 2.106 0 0 0-.267-.779 2.027 2.027 0 0 0-.541-.606 3.96 3.96 0 0 1-1.481-2.282c-1.708 2.239-1.053 3.51-.235 4.63a.748.748 0 0 1-.014.901.87.87 0 0 1-.394.283.838.838 0 0 1-.478.023c-1.105-.27-2.145-.784-2.85-1.603a4.686 4.686 0 0 1-.906-1.555 4.811 4.811 0 0 1-.263-1.797s-.133-2.463 2.837-4.876c0 0 3.51-2.978 2.292-5.18a.621.621 0 0 1 .112-.653.558.558 0 0 1 .623-.147l.146.058a7.63 7.63 0 0 1 2.96 3.5c.58 1.413.576 3.06.184 4.527.325-.292.596-.641.801-1.033l.029-.064c.198-.477.821-.325 1.055-.013.086.137 2.292 3.343 1.107 6.048a5.516 5.516 0 0 1-1.84 2.027 6.127 6.127 0 0 1-2.138.893.834.834 0 0 1-.472-.038.867.867 0 0 1-.381-.29zM7.554 7.892a.422.422 0 0 1 .55.146c.04.059.066.126.075.198l.045.349c.02.511.014 1.045.213 1.536.206.504.526.95.932 1.298a3.06 3.06 0 0 1 1.16 1.422c.22.564.25 1.19.084 1.773a4.123 4.123 0 0 0 1.39-.757l.103-.084c.336-.277.613-.623.813-1.017.201-.393.322-.825.354-1.269.065-1.025-.284-2.054-.827-2.972-.248.36-.59.639-.985.804-.247.105-.509.17-.776.19a.792.792 0 0 1-.439-.1.832.832 0 0 1-.321-.328.825.825 0 0 1-.035-.729c.412-.972.54-2.05.365-3.097a5.874 5.874 0 0 0-1.642-3.16c-.156 2.205-2.417 4.258-2.881 4.7a3.537 3.537 0 0 1-.224.194c-2.426 1.965-2.26 3.755-2.26 3.834a3.678 3.678 0 0 0 .459 2.043c.365.645.89 1.177 1.52 1.54C4.5 12.808 4.5 10.89 7.183 8.14l.372-.25z"/>
	</symbol>
   </defs>
</svg>

